<svg width="70" height="32" viewBox="0 0 70 32" fill="none" xmlns="http://www.w3.org/2000/svg">
<path fill-rule="evenodd" clip-rule="evenodd" d="M9.072 7.056C12.072 7.056 14.376 7.76999 15.984 9.198C17.592 10.626 18.396 12.78 18.396 15.66V26.712H13.14V24.3C12.084 26.1 10.116 27 7.236 27C5.74799 27 4.45801 26.748 3.366 26.244C2.27399 25.74 1.44 25.044 0.864 24.156C0.287997 23.268 0 22.26 0 21.132C0 19.332 0.677993 17.916 2.034 16.884C3.39001 15.852 5.48399 15.336 8.316 15.336H12.78C12.78 14.112 12.408 13.17 11.664 12.51C10.92 11.85 9.80401 11.52 8.316 11.52C7.28399 11.52 6.27001 11.682 5.274 12.006C4.278 12.33 3.432 12.768 2.736 13.32L0.72 9.396C1.77601 8.652 3.04199 8.076 4.518 7.668C5.99401 7.26 7.51199 7.056 9.072 7.056ZM8.64 23.22C9.60001 23.22 10.452 22.998 11.196 22.554C11.94 22.11 12.468 21.456 12.78 20.592V18.612H8.928C6.62399 18.612 5.472 19.368 5.472 20.88C5.472 21.6 5.754 22.17 6.318 22.59C6.882 23.01 7.656 23.22 8.64 23.22Z" fill="black"/>
<path fill-rule="evenodd" clip-rule="evenodd" d="M43.1761 19.116L40.4761 21.78V26.712H34.8601V0H40.4761V15.12L48.6841 7.344H55.3801L47.3161 15.552L56.1001 26.712H49.2961L43.1761 19.116ZM69.6601 1.512V26.712H63.8281V6.192H58.7881V1.512H69.6601Z" fill="#555555"/>
<path fill-rule="evenodd" clip-rule="evenodd" d="M22.6681 31.712C24.6563 31.712 26.2681 30.1002 26.2681 28.112C26.2681 26.1238 24.6563 24.512 22.6681 24.512C20.6799 24.512 19.0681 26.1238 19.0681 28.112C19.0681 30.1002 20.6799 31.712 22.6681 31.712Z" fill="black"/>
</svg>
