<?xml version="1.0" encoding="UTF-8"?>
<svg width="16px" height="12px" viewBox="0 0 16 12" version="1.1" xmlns="http://www.w3.org/2000/svg" xmlns:xlink="http://www.w3.org/1999/xlink">
    <!-- Generator: Sketch 48.1 (47250) - http://www.bohemiancoding.com/sketch -->
    <title>Twitter</title>
    <desc>Created with Sketch.</desc>
    <defs></defs>
    <g id="footer" stroke="none" stroke-width="1" fill="none" fill-rule="evenodd" transform="translate(-585.000000, -78.000000)">
        <g id="share">
            <g transform="translate(455.000000, 72.000000)">
                <g id="Twitter" transform="translate(126.000000, 0.000000)">
                    <rect id="!bound" x="0" y="0" width="24" height="24"></rect>
                    <path d="M18.8709143,6.26277143 C18.4475333,6.5339619 17.4754571,6.9280381 16.9960571,6.9280381 L16.9960571,6.92884762 C16.4486571,6.357 15.6779905,6 14.8232952,6 C13.1632857,6 11.8172095,7.34607619 11.8172095,9.0054381 C11.8172095,9.23599048 11.8439238,9.46087619 11.8933048,9.67653333 L11.892819,9.67653333 C9.64104762,9.6174381 7.17831429,8.4888 5.69575238,6.55711429 C4.78422857,8.13487619 5.57302857,9.8896 6.6074381,10.5289619 C6.25335238,10.5556762 5.60152381,10.4881619 5.29471429,10.1888 C5.27415238,11.236 5.77767619,12.6235238 7.61367619,13.1268857 C7.26007619,13.3171238 6.63415238,13.2625619 6.36199048,13.2220857 C6.45751429,14.1060857 7.6954381,15.2617619 9.04912381,15.2617619 C8.56664762,15.8198476 6.75137143,16.8320762 4.71428571,16.5100476 C6.0977619,17.3517905 7.71017143,17.8392857 9.41680952,17.8392857 C14.2666667,17.8392857 18.0330571,13.9087238 17.8303524,9.0598381 C17.8295429,9.05449524 17.8295429,9.04915238 17.8290571,9.04332381 C17.8295429,9.03085714 17.8303524,9.01839048 17.8303524,9.0054381 C17.8303524,8.99038095 17.8290571,8.97613333 17.8285714,8.9615619 C18.2700857,8.65960952 18.8624952,8.12548571 19.2857143,7.42249524 C19.0402667,7.55768571 18.3039238,7.82839048 17.6187429,7.89558095 C18.0584762,7.65822857 18.709981,6.88092381 18.8709143,6.26277143" id="Fill-1" fill="#8C8C8C"></path>
                </g>
            </g>
        </g>
    </g>
</svg>