<?xml version="1.0" encoding="UTF-8"?>
<svg width="16px" height="16px" viewBox="0 0 16 16" version="1.1" xmlns="http://www.w3.org/2000/svg" xmlns:xlink="http://www.w3.org/1999/xlink">
    <!-- Generator: Sketch 48.1 (47250) - http://www.bohemiancoding.com/sketch -->
    <title>Pinterest</title>
    <desc>Created with Sketch.</desc>
    <defs></defs>
    <g id="footer" stroke="none" stroke-width="1" fill="none" fill-rule="evenodd" transform="translate(-681.000000, -76.000000)">
        <g id="share">
            <g transform="translate(455.000000, 72.000000)">
                <g id="Pinterest" transform="translate(222.000000, 0.000000)">
                    <rect id="!bound" x="0" y="0" width="24" height="24"></rect>
                    <path d="M12.2142857,4.28571429 C8.07245238,4.28571429 4.71428571,7.64735228 4.71428571,11.793467 C4.71428571,14.8838249 6.58011905,17.5378989 9.24478571,18.6904224 C9.22561905,18.1670486 9.24428571,17.5429041 9.37661905,16.9769864 C9.52211905,16.366189 10.346119,12.8712466 10.346119,12.8712466 C10.346119,12.8712466 10.1054524,12.3895826 10.1054524,11.678515 C10.1054524,10.5630298 10.752619,9.72816767 11.5569524,9.72816767 C12.2417857,9.72816767 12.5727857,10.2440337 12.5727857,10.8605036 C12.5727857,11.5492148 12.1337857,12.5792785 11.907119,13.5334304 C11.7194524,14.332589 12.309119,14.9850961 13.0964524,14.9850961 C14.5214524,14.9850961 15.4812857,13.1517029 15.4812857,10.9782919 C15.4812857,9.32775419 14.3717857,8.09097705 12.3502857,8.09097705 C10.0677857,8.09097705 8.64378571,9.7955706 8.64378571,11.7000372 C8.64378571,12.3562148 8.83778571,12.8198602 9.14128571,13.1777298 C9.28045238,13.3423998 9.29928571,13.4088017 9.24845238,13.5984976 C9.21178571,13.7363066 9.13078571,14.0699845 9.09595238,14.2032888 C9.04611905,14.3939857 8.89095238,14.4608882 8.71878571,14.3908158 C7.66778571,13.9618729 7.17711905,12.8088489 7.17711905,11.5130108 C7.17711905,9.37213335 8.98061905,6.80548294 12.5567857,6.80548294 C15.4314524,6.80548294 17.3224524,8.88779988 17.3224524,11.1212729 C17.3224524,14.0786601 15.6804524,16.2859394 13.261119,16.2859394 C12.4482857,16.2859394 11.6832857,15.8459851 11.4227857,15.3474703 C11.4227857,15.3474703 10.9842857,17.0819281 10.8927857,17.4182754 C10.7347857,17.9906998 10.4304524,18.5626237 10.1484524,19.0129221 C10.8039524,19.200449 11.4969524,19.3012198 12.2142857,19.3012198 C16.356119,19.3012198 19.7142857,15.9395818 19.7142857,11.793467 C19.7142857,7.64735228 16.356119,4.28571429 12.2142857,4.28571429" id="Fill-15" fill="#8C8C8C"></path>
                </g>
            </g>
        </g>
    </g>
</svg>